<svg xmlns="http://www.w3.org/2000/svg" width="100%" height="100%" viewBox="0 0 1200 360"><defs><linearGradient id="bg-grad" x1="0%" x2="100%" y1="0%" y2="100%"><stop offset="0%" stop-color="#0f172a"/><stop offset="50%" stop-color="#1e1b4b"/><stop offset="100%" stop-color="#0f172a"/></linearGradient><linearGradient id="accent-cyan" x1="0%" x2="100%" y1="0%" y2="0%"><stop offset="0%" stop-color="#06b6d4"/><stop offset="100%" stop-color="#3b82f6"/></linearGradient><linearGradient id="accent-purple" x1="0%" x2="100%" y1="0%" y2="0%"><stop offset="0%" stop-color="#a855f7"/><stop offset="100%" stop-color="#ec4899"/></linearGradient><linearGradient id="card-grad" x1="0%" x2="0%" y1="0%" y2="100%"><stop offset="0%" stop-color="#fff" stop-opacity=".07"/><stop offset="100%" stop-color="#fff" stop-opacity=".02"/></linearGradient><pattern id="grid" width="40" height="40" patternUnits="userSpaceOnUse"><path fill="none" stroke="#fff" stroke-opacity=".04" stroke-width="1" d="M 40 0 L 0 0 0 40"/></pattern><filter id="glow" width="140%" height="140%" x="-20%" y="-20%"><feGaussianBlur result="blur" stdDeviation="12"/><feComposite in="SourceGraphic" in2="blur" operator="over"/></filter></defs><rect width="1200" height="360" fill="url(#bg-grad)"/><rect width="1200" height="360" fill="url(#grid)"/><g opacity=".6"><circle cx="150" cy="80" r="140" fill="#3b82f6" filter="url(#glow)" opacity=".15"><animate attributeName="r" dur="6s" repeatCount="indefinite" values="120;150;120"/><animate attributeName="opacity" dur="6s" repeatCount="indefinite" values="0.1;0.25;0.1"/></circle><circle cx="1050" cy="280" r="160" fill="#a855f7" filter="url(#glow)" opacity=".15"><animate attributeName="r" dur="8s" repeatCount="indefinite" values="140;170;140"/><animate attributeName="opacity" dur="8s" repeatCount="indefinite" values="0.1;0.2;0.1"/></circle></g><g stroke-dasharray="8 8" stroke-width="2" opacity=".4"><path fill="none" stroke="#06b6d4" d="M 100 290 Q 300 320 600 290 T 1100 290"><animate attributeName="stroke-dashoffset" dur="10s" repeatCount="indefinite" values="100;0"/></path><path fill="none" stroke="#ec4899" d="M 50 70 Q 400 30 700 70 T 1150 60"><animate attributeName="stroke-dashoffset" dur="12s" repeatCount="indefinite" values="0;100"/></path></g><g opacity=".85" transform="translate(80, 270)"><rect width="130" height="36" fill="url(#card-grad)" stroke="#10b981" stroke-width="1.5" rx="18"/><circle cx="20" cy="18" r="6" fill="#10b981"><animate attributeName="opacity" dur="2s" repeatCount="indefinite" values="1;0.3;1"/></circle><text x="36" y="23" fill="#e2e8f0" font-family="-apple-system, BlinkMacSystemFont, 'Segoe UI', Roboto, sans-serif" font-size="13" font-weight="600">Build: Passed</text></g><g opacity=".85" transform="translate(980, 60)"><rect width="140" height="36" fill="url(#card-grad)" stroke="#3b82f6" stroke-width="1.5" rx="18"/><circle cx="20" cy="18" r="6" fill="#3b82f6"><animate attributeName="opacity" dur="2.5s" repeatCount="indefinite" values="0.4;1;0.4"/></circle><text x="36" y="23" fill="#e2e8f0" font-family="-apple-system, BlinkMacSystemFont, 'Segoe UI', Roboto, sans-serif" font-size="13" font-weight="600">Deploy: Active</text></g><g text-anchor="middle" transform="translate(600, 0)"><g transform="translate(0, 50)"><rect width="280" height="30" x="-140" y="0" fill="#1e293b" stroke="#38bdf8" stroke-width="1" opacity=".9" rx="15"/><text x="0" y="20" fill="#38bdf8" font-family="-apple-system, BlinkMacSystemFont, 'Segoe UI', Roboto, sans-serif" font-size="13" font-weight="700" letter-spacing="1.5">⚡ CURATED DEVOPS ECOSYSTEM</text></g><text x="0" y="135" fill="#fff" font-family="-apple-system, BlinkMacSystemFont, 'Segoe UI', Roboto, Helvetica, Arial, sans-serif" font-size="44" font-weight="900" letter-spacing="-.5">Awesome Continuous Integration</text><rect width="360" height="4" x="-180" y="152" fill="url(#accent-cyan)" rx="2"/><text x="0" y="195" fill="#94a3b8" font-family="-apple-system, BlinkMacSystemFont, 'Segoe UI', Roboto, sans-serif" font-size="18" font-weight="400">Top SaaS Platforms &amp; High-Star Open-Source CI/CD Engines</text><g><g transform="translate(0, 230) translate(-230, 0)"><rect width="140" height="32" x="0" y="0" fill="#1e293b" stroke="#475569" stroke-width="1" rx="8"/><text x="70" y="21" fill="#cbd5e1" font-family="sans-serif" font-size="13" font-weight="600">🚀 SaaS Platforms</text></g><g transform="translate(0, 230) translate(-75, 0)"><rect width="150" height="32" x="0" y="0" fill="#1e293b" stroke="#475569" stroke-width="1" rx="8"/><text x="75" y="21" fill="#cbd5e1" font-family="sans-serif" font-size="13" font-weight="600">⭐ Open-Source CI</text></g><g transform="translate(0, 230) translate(90, 0)"><rect width="140" height="32" x="0" y="0" fill="#1e293b" stroke="#475569" stroke-width="1" rx="8"/><text x="70" y="21" fill="#cbd5e1" font-family="sans-serif" font-size="13" font-weight="600">🛠️ Local-First CI</text></g></g><text x="0" y="305" fill="#64748b" font-family="sans-serif" font-size="13" font-weight="500">Updated for 2026 • Verified Pricing, Free Tier Quotas &amp; GitHub Star Analytics</text></g></svg>